<?xml version="1.0" standalone="no"?><svg xmlns="http://www.w3.org/2000/svg" viewBox="0 0 1440 320"><path fill=" #3e2c5a" fill-opacity="1" d="M0,64L34.3,58.7C68.6,53,137,43,206,37.3C274.3,32,343,32,411,58.7C480,85,549,139,617,138.7C685.7,139,754,85,823,106.7C891.4,128,960,224,1029,266.7C1097.1,309,1166,299,1234,293.3C1302.9,288,1371,288,1406,288L1440,288L1440,320L1405.7,320C1371.4,320,1303,320,1234,320C1165.7,320,1097,320,1029,320C960,320,891,320,823,320C754.3,320,686,320,617,320C548.6,320,480,320,411,320C342.9,320,274,320,206,320C137.1,320,69,320,34,320L0,320Z"></path></svg>