<?xml version="1.0" standalone="no"?><svg xmlns="http://www.w3.org/2000/svg" viewBox="0 0 1440 320"><path fill="#3e2c5a" fill-opacity="1" d="M0,224L40,202.7C80,181,160,139,240,133.3C320,128,400,160,480,197.3C560,235,640,277,720,282.7C800,288,880,256,960,245.3C1040,235,1120,245,1200,245.3C1280,245,1360,235,1400,229.3L1440,224L1440,320L1400,320C1360,320,1280,320,1200,320C1120,320,1040,320,960,320C880,320,800,320,720,320C640,320,560,320,480,320C400,320,320,320,240,320C160,320,80,320,40,320L0,320Z"></path></svg>