<?xml version="1.0" encoding="iso-8859-1"?>
<!-- Generator: Adobe Illustrator 19.0.0, SVG Export Plug-In . SVG Version: 6.00 Build 0)  -->
<svg version="1.1" id="Capa_1" xmlns="http://www.w3.org/2000/svg" xmlns:xlink="http://www.w3.org/1999/xlink" x="0px" y="0px"
	 viewBox="0 0 115.668 115.668" style="enable-background:new 0 0 115.668 115.668;" xml:space="preserve">
<g>
	<path d="M57.834,0C25.893,0,0,25.893,0,57.834c0,31.94,25.893,57.834,57.834,57.834c31.94,0,57.834-25.894,57.834-57.834
		C115.668,25.893,89.775,0,57.834,0z M15.871,64.36l11.785-6.525L15.87,51.309l2.908-5.249L40.04,57.835L18.777,69.608L15.871,64.36
		z M57.635,97.437c-10.04,0-18.208-7.281-18.208-16.23h6c0,5.643,5.477,10.23,12.208,10.23c6.73,0,12.208-4.591,12.208-10.23h6
		C75.843,90.153,67.675,97.437,57.635,97.437z M96.89,69.608L75.628,57.835L96.89,46.06l2.906,5.249l-11.783,6.526l11.783,6.525
		L96.89,69.608z"/>
</g>
<g>
</g>
<g>
</g>
<g>
</g>
<g>
</g>
<g>
</g>
<g>
</g>
<g>
</g>
<g>
</g>
<g>
</g>
<g>
</g>
<g>
</g>
<g>
</g>
<g>
</g>
<g>
</g>
<g>
</g>
</svg>
