<?xml version="1.0" encoding="iso-8859-1"?>
<!-- Generator: Adobe Illustrator 19.0.0, SVG Export Plug-In . SVG Version: 6.00 Build 0)  -->
<svg version="1.1" id="Capa_1" xmlns="http://www.w3.org/2000/svg" xmlns:xlink="http://www.w3.org/1999/xlink" x="0px" y="0px"
	 viewBox="0 0 115.668 115.668" style="enable-background:new 0 0 115.668 115.668;" xml:space="preserve">
<g>
	<g>
		<path d="M66.405,94.957c3.965,0,7.248-3.478,7.803-7.986H58.599C59.155,91.48,62.437,94.957,66.405,94.957z"/>
		<path d="M57.834,0C25.893,0,0,25.893,0,57.834c0,31.94,25.893,57.834,57.834,57.834c31.94,0,57.834-25.894,57.834-57.834
			C115.668,25.893,89.775,0,57.834,0z M23.828,66.2c-4.619,0-8.364-3.745-8.364-8.364s3.745-8.364,8.364-8.364
			c4.62,0,8.364,3.745,8.364,8.364S28.448,66.2,23.828,66.2z M66.403,100.957c-7.25,0-13.212-6.161-13.833-13.986H34.964v-6h45.342
			l0.017,5.968C79.701,94.765,73.653,100.957,66.403,100.957z M91.841,66.2c-4.619,0-8.364-3.745-8.364-8.364
			s3.745-8.364,8.364-8.364s8.364,3.745,8.364,8.364S96.46,66.2,91.841,66.2z"/>
	</g>
</g>
<g>
</g>
<g>
</g>
<g>
</g>
<g>
</g>
<g>
</g>
<g>
</g>
<g>
</g>
<g>
</g>
<g>
</g>
<g>
</g>
<g>
</g>
<g>
</g>
<g>
</g>
<g>
</g>
<g>
</g>
</svg>
