<?xml version="1.0" encoding="iso-8859-1"?>
<!-- Generator: Adobe Illustrator 19.0.0, SVG Export Plug-In . SVG Version: 6.00 Build 0)  -->
<svg version="1.1" id="Capa_1" xmlns="http://www.w3.org/2000/svg" xmlns:xlink="http://www.w3.org/1999/xlink" x="0px" y="0px"
	 viewBox="0 0 115.668 115.668" style="enable-background:new 0 0 115.668 115.668;" xml:space="preserve">
<g>
	<path d="M57.834,0C25.893,0,0,25.893,0,57.834c0,31.94,25.893,57.834,57.834,57.834s57.834-25.894,57.834-57.834
		C115.668,25.893,89.775,0,57.834,0z M29.14,53.358c-4.545,0-8.242,4.423-8.242,9.86h-6c0-8.746,6.389-15.86,14.242-15.86
		s14.242,7.114,14.242,15.86h-6C37.382,57.781,33.685,53.358,29.14,53.358z M57.834,97.008c-10.394,0-18.82-7.332-18.82-16.375
		h37.64C76.654,89.676,68.229,97.008,57.834,97.008z M94.772,63.218c0-5.437-3.696-9.86-8.242-9.86c-4.545,0-8.241,4.423-8.241,9.86
		h-6c0-8.746,6.389-15.86,14.241-15.86s14.242,7.114,14.242,15.86H94.772z"/>
</g>
<g>
</g>
<g>
</g>
<g>
</g>
<g>
</g>
<g>
</g>
<g>
</g>
<g>
</g>
<g>
</g>
<g>
</g>
<g>
</g>
<g>
</g>
<g>
</g>
<g>
</g>
<g>
</g>
<g>
</g>
</svg>
